<?xml version="1.0" encoding="UTF-8" standalone="no"?>
<svg
   xmlns:dc="http://purl.org/dc/elements/1.1/"
   xmlns:cc="http://creativecommons.org/ns#"
   xmlns:rdf="http://www.w3.org/1999/02/22-rdf-syntax-ns#"
   xmlns:svg="http://www.w3.org/2000/svg"
   xmlns="http://www.w3.org/2000/svg"
   xmlns:sodipodi="http://sodipodi.sourceforge.net/DTD/sodipodi-0.dtd"
   xmlns:inkscape="http://www.inkscape.org/namespaces/inkscape"
   version="1.1"
   id="svg2"
   xml:space="preserve"
   width="481.91333"
   height="155.948"
   viewBox="0 0 481.91333 155.948"
   sodipodi:docname="Hyundai_Logo_Hor_FullColour_RGB.ai"><metadata
     id="metadata8"><rdf:RDF><cc:Work
         rdf:about=""><dc:format>image/svg+xml</dc:format><dc:type
           rdf:resource="http://purl.org/dc/dcmitype/StillImage" /></cc:Work></rdf:RDF></metadata><defs
     id="defs6"><clipPath
       clipPathUnits="userSpaceOnUse"
       id="clipPath26"><path
         d="M 0,116.961 H 361.435 V 0 H 0 Z"
         id="path24" /></clipPath></defs><sodipodi:namedview
     pagecolor="#ffffff"
     bordercolor="#666666"
     borderopacity="1"
     objecttolerance="10"
     gridtolerance="10"
     guidetolerance="10"
     inkscape:pageopacity="0"
     inkscape:pageshadow="2"
     inkscape:window-width="640"
     inkscape:window-height="480"
     id="namedview4" /><g
     id="g10"
     inkscape:groupmode="layer"
     inkscape:label="Hyundai_Logo_Hor_FullColour_RGB"
     transform="matrix(1.3333333,0,0,-1.3333333,0,155.948)"><g
       id="g12"
       transform="translate(147.8583,72.4721)"><path
         d="M 0,0 V -10.66 H -12.088 V 0 h -6.662 v -27.981 h 6.662 V -16.73 H 0 V -27.981 H 6.66 L 6.66,0 H 6.322 Z"
         style="fill:#002c5f;fill-opacity:1;fill-rule:nonzero;stroke:none"
         id="path14" /></g><g
       id="g16"
       transform="translate(178.934,72.4721)"><path
         d="M 0,0 -6.969,-11.08 -13.932,0 h -7.86 l 11.5,-18.29 v -9.691 h 6.655 v 9.691 L 7.865,0 H 7.251 Z"
         style="fill:#002c5f;fill-opacity:1;fill-rule:nonzero;stroke:none"
         id="path18" /></g><g
       id="g20"><g
         id="g22"
         clip-path="url(#clipPath26)"><g
           id="g28"
           transform="translate(208.2246,72.4721)"><path
             d="m 0,0 v -20.511 c 0,-0.78 -0.588,-1.409 -1.417,-1.409 H -12.094 V 0 h -6.66 V -27.981 H 0.927 c 1.755,0 3.162,0.52 4.188,1.541 1.019,1.025 1.534,2.432 1.534,4.175 L 6.649,0 H 6.317 Z"
             style="fill:#002c5f;fill-opacity:1;fill-rule:nonzero;stroke:none"
             id="path30" /></g><g
           id="g32"
           transform="translate(240.7363,72.4721)"><path
             d="m 0,0 h -19.686 v -27.981 h 6.658 v 21.922 h 10.684 c 0.858,0 1.411,-0.671 1.411,-1.401 v -20.521 h 6.652 v 22.26 c 0,1.752 -0.52,3.155 -1.534,4.177 C 3.15,-0.516 1.751,0 0,0"
             style="fill:#002c5f;fill-opacity:1;fill-rule:nonzero;stroke:none"
             id="path34" /></g><g
           id="g36"
           transform="translate(271.3769,64.9658)"><path
             d="m 0,0 v -12.967 c 0,-0.755 -0.555,-1.447 -1.423,-1.447 H -12.098 V 1.448 H -1.465 C -0.591,1.448 0,0.837 0,0 M 0.937,7.506 H -18.747 V -20.475 H 0.937 c 1.748,0 3.15,0.52 4.174,1.541 1.026,1.026 1.542,2.432 1.542,4.176 V 1.785 C 6.653,3.537 6.137,4.94 5.111,5.967 4.085,6.99 2.679,7.506 0.937,7.506"
             style="fill:#002c5f;fill-opacity:1;fill-rule:nonzero;stroke:none"
             id="path38" /></g><g
           id="g40"
           transform="translate(302.6582,66.4135)"><path
             d="m 0,0 v -7.207 h -12.098 v 5.785 c 0,0.691 0.535,1.422 1.42,1.422 z m -13.025,6.059 c -1.747,0 -3.16,-0.516 -4.177,-1.544 -1.028,-1.025 -1.54,-2.43 -1.54,-4.178 v -22.259 h 6.644 v 8.656 H 0 v -8.656 H 6.651 V 6.059 Z"
             style="fill:#002c5f;fill-opacity:1;fill-rule:nonzero;stroke:none"
             id="path42" /></g><path
           d="m 315.792,44.491 h 6.658 v 27.981 h -6.658 z"
           style="fill:#002c5f;fill-opacity:1;fill-rule:nonzero;stroke:none"
           id="path44" /><g
           id="g46"
           transform="translate(63.0966,73.5126)"><path
             d="M 0,0 C 0.795,0.153 1.319,0.152 1.507,-0.05 1.618,-0.177 1.651,-0.387 1.505,-0.649 1.419,-0.79 1.331,-0.915 1.173,-1.105 -5.559,-9.04 -10.684,-20.743 -12.142,-24.124 c -0.109,-0.232 -0.219,-0.463 -0.308,-0.614 -0.132,-0.238 -0.314,-0.437 -0.637,-0.456 -0.18,-0.011 -0.423,0.032 -0.795,0.258 -4.467,2.754 -7.123,6.188 -7.123,9.911 0,6.723 8.644,12.502 21.005,15.025 m 6.904,-5.059 c 0.635,1.468 1.728,4.613 4.238,5.863 0.762,0.378 1.698,0.559 2.54,0.583 0.188,0.007 0.323,0 0.377,0 7.028,0 13.567,-0.972 19.048,-2.644 0.039,-0.012 0.167,-0.062 0.207,-0.077 0.504,-0.168 0.765,-0.4 0.765,-0.689 0,-0.25 -0.135,-0.439 -0.315,-0.618 -0.077,-0.076 -0.193,-0.176 -0.346,-0.305 -1.264,-1.058 -5.071,-3.811 -12.241,-6.555 -2.518,-0.964 -5.662,-2.159 -8.955,-2.856 -1.938,-0.409 -9.103,-1.499 -5.318,7.298 m 33.45,-0.25 c 0.135,0.237 0.316,0.434 0.642,0.455 0.179,0.013 0.424,-0.031 0.792,-0.259 4.471,-2.752 7.12,-6.186 7.12,-9.908 0,-6.724 -8.644,-12.5 -21,-15.028 -0.794,-0.155 -1.321,-0.151 -1.502,0.049 -0.123,0.125 -0.156,0.34 0,0.604 0.078,0.136 0.167,0.261 0.33,0.458 6.731,7.935 11.856,19.634 13.313,23.013 0.111,0.234 0.22,0.464 0.305,0.616 M 21.121,-24.957 c -0.634,-1.474 -1.727,-4.618 -4.238,-5.869 -0.757,-0.374 -1.698,-0.558 -2.54,-0.583 -0.189,-0.005 -0.323,0 -0.38,0 -7.028,0 -13.566,0.975 -19.039,2.642 -0.047,0.013 -0.172,0.064 -0.212,0.079 -0.504,0.167 -0.762,0.403 -0.762,0.688 0,0.256 0.13,0.443 0.312,0.62 0.075,0.078 0.193,0.175 0.345,0.307 1.266,1.054 5.071,3.814 12.243,6.557 2.516,0.96 5.66,2.158 8.957,2.853 1.931,0.407 9.099,1.503 5.314,-7.294 m -7.165,-9.565 c 21.025,0 38.067,8.726 38.067,19.495 0,10.764 -17.042,19.49 -38.067,19.49 -21.024,0 -38.067,-8.726 -38.067,-19.49 0,-10.769 17.043,-19.495 38.067,-19.495"
             style="fill:#002c5f;fill-opacity:1;fill-rule:nonzero;stroke:none"
             id="path48" /></g></g></g></g></svg>
